<?xml version="1.0" encoding="UTF-8" standalone="no"?>
<svg
   version="1.0"
   width="38.000000pt"
   height="38.000000pt"
   viewBox="0 0 172.000000 172.000000"
   preserveAspectRatio="xMidYMid meet"
   id="svg12"
   sodipodi:docname="logo.svg"
   xml:space="preserve"
   inkscape:version="1.2.1 (9c6d41e410, 2022-07-14)"
   xmlns:inkscape="http://www.inkscape.org/namespaces/inkscape"
   xmlns:sodipodi="http://sodipodi.sourceforge.net/DTD/sodipodi-0.dtd"
   xmlns="http://www.w3.org/2000/svg"
   xmlns:svg="http://www.w3.org/2000/svg"><defs
     id="defs16" /><sodipodi:namedview
     id="namedview14"
     pagecolor="#ffffff"
     bordercolor="#666666"
     borderopacity="1.0"
     inkscape:showpageshadow="2"
     inkscape:pageopacity="0.0"
     inkscape:pagecheckerboard="0"
     inkscape:deskcolor="#d1d1d1"
     inkscape:document-units="pt"
     showgrid="false"
     inkscape:zoom="2.9551946"
     inkscape:cx="-4.3990334"
     inkscape:cy="70.722922"
     inkscape:window-width="1920"
     inkscape:window-height="1027"
     inkscape:window-x="-8"
     inkscape:window-y="-8"
     inkscape:window-maximized="1"
     inkscape:current-layer="svg12" /><metadata
     id="metadata2">
Created by Docfx
</metadata><path
     style="fill:#e60014;fill-opacity:1;stroke-width:0.999999"
     d="m 77.102732,142.54024 c -1.82475,-0.11358 -5.97549,-0.62133 -6.1004,-0.74622 -0.0132,-0.0132 13.32562,-13.37351 29.641778,-29.68963 l 29.66575,-29.66567 0.0453,0.312961 c 0.0249,0.172135 0.13881,0.952463 0.25316,1.734074 0.26112,1.784989 0.43505,3.800457 0.50694,5.874663 l 0.0558,1.611324 -25.3288,25.328898 -25.328768,25.32889 -1.17755,-0.0118 c -0.64764,-0.006 -1.6526,-0.0413 -2.23322,-0.0775 z m 33.900238,-19.99823 c 10.2484,-10.25268 18.64394,-18.63073 18.65678,-18.6179 0.038,0.0379 -0.66778,2.5369 -1.03634,3.66978 -1.35304,4.15889 -3.45548,8.50495 -5.90264,12.20161 -4.62136,6.98097 -10.90761,12.73669 -18.28979,16.74622 -3.27322,1.77782 -7.366528,3.41375 -10.762148,4.30124 -0.53597,0.14006 -1.04756,0.27395 -1.13689,0.29748 -0.0893,0.0235 8.222638,-8.34576 18.471028,-18.59843 z m -49.857298,16.38538 c -1.38779,-0.56059 -5.05127,-2.30447 -5.38056,-2.56124 -0.12952,-0.101 3.06177,-3.31576 34.44182,-34.69522 l 34.584578,-34.583904 0.53265,1.005059 c 0.71546,1.350017 1.57837,3.235748 2.22153,4.854721 l 0.52925,1.332262 -32.632238,32.632312 c -17.94771,17.94776 -32.66879,32.63017 -32.71347,32.62758 -0.0447,-0.003 -0.75729,-0.27781 -1.58356,-0.61157 z m -12.91182,-7.60053 c -1.21284,-0.98156 -2.49163,-2.10793 -3.65428,-3.21867 l -0.85267,-0.8146 36.01503,-36.024286 36.015028,-36.024276 1.05802,1.079199 c 1.37511,1.402647 3.77376,4.214893 3.77376,4.424473 0,0.036 -16.05146,16.115658 -35.669908,35.732569 l -35.66988,35.667111 z m -4.14988,-18.15495 c -4.04129,-4.10265 -6.92057,-8.11342 -9.40035,-13.09453 -1.74556,-3.50628 -2.90587,-6.632289 -3.82205,-10.296895 -3.21162,-12.846426 -1.33336,-26.430513 5.23536,-37.863487 3.40008,-5.917922 8.27917,-11.388966 13.8424,-15.521819 6.91963,-5.140521 15.15526,-8.454241 23.75273,-9.557237 2.07979,-0.266822 3.10418,-0.339079 5.52203,-0.389505 10.57274,-0.220496 20.637493,2.72021 29.413838,8.594105 2.81455,1.883725 6.08241,4.613358 8.19842,6.84809 l 0.84357,0.890889 -16.42628,16.446672 C 57.415022,103.11119 45.753512,114.77573 45.710502,114.77573 c -0.0258,0 -0.75762,-0.72172 -1.62653,-1.60382 z"
     id="path311"
     sodipodi:nodetypes="ssscssscccssssssssssssscsscssssscccssscsssssssssscsss" /></svg>
